<svg xmlns="http://www.w3.org/2000/svg" viewBox="0 0 1440 300" preserveAspectRatio="none">
  <!-- Hero wave pattern — more dramatic, deeper colors -->
  <path d="M0,150 C120,80 240,200 360,150 C480,100 600,180 720,150 C840,120 960,210 1080,150 C1200,90 1320,170 1440,150 L1440,300 L0,300 Z" fill="#C97B5B" opacity="0.22"/>
  <path d="M0,170 C140,100 280,220 420,170 C560,120 700,200 840,170 C980,140 1120,230 1260,170 C1370,140 1440,180 1440,170 L1440,300 L0,300 Z" fill="#B87A7A" opacity="0.20"/>
  <path d="M0,195 C160,125 320,245 480,195 C640,145 800,225 960,195 C1120,165 1280,255 1440,195 L1440,300 L0,300 Z" fill="#BE9D6A" opacity="0.18"/>
  <path d="M0,220 C180,150 360,270 540,220 C720,170 880,250 1040,220 C1200,190 1360,240 1440,220 L1440,300 L0,300 Z" fill="#C97B5B" opacity="0.14"/>
</svg>
